# xmcd CD database file
#
# Track frame offsets:
#	150
#	19271
#	32716
#	57713
#	73431
#	87676
#	99728
#	128584
#	157171
#	180040
#	198866
#	226197
#
# Disc length: 3350 seconds
#
# Revision: 1
# Processed by: cddbd v1.5.2PL0 Copyright (c) Steve Scherf et al.
# Submitted via: CDex 1.51
#
DISCID=a50d140c
DTITLE=Salsa - The Essential Guide 01
DYEAR=2005
DGENRE=Salsa
TTITLE0=The Spanish Harlem Orchestra feat. Rubén Blades - Bailadores
TTITLE1=Joe Cuba Sextet feat. Cheo Feliciano - Cachondea
TTITLE2=Gambino Pampini - Cuerpo De Guitarra
TTITLE3=Los Del Caney - El Dulcerito
TTITLE4=Sexteto Café - El Titere
TTITLE5=Celia Cruz - Caramelos
TTITLE6=Orquesta La Solución feat. Frankie Ruiz - La Rueda
TTITLE7=Charanga Del Norte - Que Suene La Charanga
TTITLE8=Africando feat. Laba Sosseh - Aminata
TTITLE9=Tito Gómez - Llorara
TTITLE10=Pupi Y Su Charanga - Me Voy Pa' Moron
TTITLE11=Kike Harvey - Pachangon 2
EXTD=YEAR: 2005
EXTT0=
EXTT1=
EXTT2=
EXTT3=
EXTT4=
EXTT5=
EXTT6=
EXTT7=
EXTT8=
EXTT9=
EXTT10=
EXTT11=
PLAYORDER=
